<?xml version="1.0" encoding="utf-8"?>
<!-- Generator: Adobe Illustrator 16.0.0, SVG Export Plug-In . SVG Version: 6.00 Build 0)  -->
<!DOCTYPE svg PUBLIC "-//W3C//DTD SVG 1.1//EN" "http://www.w3.org/Graphics/SVG/1.1/DTD/svg11.dtd">
<svg version="1.1" id="Calque_1" xmlns="http://www.w3.org/2000/svg" xmlns:xlink="http://www.w3.org/1999/xlink" x="0px" y="0px"
	 width="247px" height="139px" viewBox="0 0 247 139" enable-background="new 0 0 247 139" xml:space="preserve">
<polygon fill="#3D3D3C" points="105.776,57.384 112.952,78.485 113.039,78.485 119.83,57.384 129.322,57.384 129.322,88.07 
	123.008,88.07 123.008,66.323 122.922,66.323 115.402,88.07 110.204,88.07 102.683,66.538 102.595,66.538 102.595,88.07 
	96.275,88.07 96.275,57.384 "/>
<path fill="#3D3D3C" d="M134.353,72.684c0.085-1.432,0.447-2.619,1.072-3.564c0.633-0.947,1.436-1.703,2.406-2.28
	c0.977-0.575,2.067-0.979,3.29-1.226c1.217-0.241,2.443-0.365,3.677-0.365c1.115,0,2.248,0.08,3.396,0.237
	c1.146,0.159,2.189,0.469,3.136,0.926c0.948,0.458,1.717,1.094,2.321,1.914c0.603,0.816,0.899,1.896,0.899,3.244V83.13
	c0,1.003,0.061,1.959,0.177,2.877c0.108,0.918,0.31,1.605,0.603,2.061h-6.191c-0.116-0.34-0.204-0.691-0.277-1.05
	c-0.073-0.355-0.12-0.726-0.154-1.099c-0.973,1.006-2.118,1.708-3.438,2.109c-1.318,0.401-2.665,0.602-4.041,0.602
	c-1.058,0-2.049-0.131-2.962-0.386c-0.919-0.258-1.722-0.659-2.407-1.208c-0.688-0.543-1.227-1.229-1.613-2.063
	c-0.385-0.825-0.578-1.813-0.578-2.962c0-1.258,0.22-2.299,0.668-3.113c0.443-0.821,1.014-1.469,1.715-1.955
	c0.702-0.49,1.506-0.856,2.407-1.099c0.903-0.24,1.813-0.438,2.732-0.584c0.913-0.138,1.82-0.254,2.708-0.339
	c0.887-0.084,1.673-0.216,2.36-0.39c0.686-0.166,1.234-0.421,1.636-0.752c0.4-0.332,0.586-0.807,0.555-1.435
	c0-0.662-0.104-1.187-0.325-1.574c-0.207-0.383-0.492-0.687-0.854-0.898c-0.359-0.218-0.772-0.359-1.247-0.432
	c-0.47-0.071-0.979-0.106-1.523-0.106c-1.207,0-2.152,0.258-2.839,0.773c-0.686,0.515-1.088,1.375-1.204,2.576H134.353z
	 M148.447,77.197c-0.254,0.231-0.579,0.408-0.964,0.539c-0.387,0.124-0.804,0.235-1.247,0.317c-0.443,0.088-0.914,0.162-1.399,0.22
	c-0.486,0.057-0.973,0.128-1.458,0.212c-0.459,0.085-0.911,0.205-1.351,0.343c-0.447,0.151-0.834,0.344-1.165,0.583
	c-0.332,0.243-0.595,0.555-0.794,0.925c-0.201,0.371-0.301,0.843-0.301,1.42c0,0.54,0.1,0.999,0.301,1.374
	c0.199,0.374,0.47,0.663,0.817,0.879c0.34,0.216,0.745,0.37,1.203,0.455c0.456,0.082,0.926,0.123,1.42,0.123
	c1.2,0,2.13-0.196,2.793-0.601c0.655-0.401,1.142-0.881,1.457-1.442c0.317-0.552,0.51-1.119,0.583-1.69
	c0.074-0.574,0.104-1.034,0.104-1.378V77.197z"/>
<polygon fill="#3D3D3C" points="178.403,88.067 174.452,73.158 174.364,73.158 170.584,88.067 164.263,88.067 157.219,65.853 
	163.664,65.853 167.75,80.938 167.83,80.938 171.528,65.853 177.453,65.853 181.241,80.892 181.327,80.892 185.408,65.853 
	191.684,65.853 184.674,88.067 "/>
<path fill="#3D3D3C" d="M194.002,72.684c0.084-1.432,0.448-2.619,1.072-3.564c0.633-0.947,1.435-1.703,2.407-2.28
	c0.975-0.575,2.075-0.979,3.294-1.226c1.211-0.241,2.438-0.365,3.673-0.365c1.117,0,2.252,0.08,3.394,0.237
	c1.146,0.159,2.191,0.469,3.14,0.926c0.945,0.458,1.717,1.094,2.321,1.914c0.599,0.816,0.899,1.896,0.899,3.244V83.13
	c0,1.003,0.059,1.959,0.175,2.877c0.107,0.918,0.312,1.605,0.601,2.061h-6.191c-0.112-0.34-0.204-0.691-0.273-1.05
	c-0.077-0.355-0.123-0.726-0.154-1.099c-0.972,1.006-2.122,1.708-3.44,2.109s-2.661,0.602-4.039,0.602
	c-1.06,0-2.048-0.131-2.966-0.386c-0.918-0.258-1.72-0.659-2.407-1.208c-0.686-0.543-1.223-1.229-1.611-2.063
	c-0.387-0.825-0.58-1.813-0.58-2.962c0-1.258,0.225-2.299,0.668-3.113c0.443-0.821,1.015-1.469,1.717-1.955
	c0.706-0.49,1.504-0.856,2.407-1.099c0.901-0.24,1.813-0.438,2.73-0.584c0.914-0.138,1.82-0.254,2.708-0.339
	c0.887-0.084,1.674-0.216,2.36-0.39c0.688-0.166,1.234-0.421,1.636-0.752c0.4-0.332,0.586-0.807,0.56-1.435
	c0-0.662-0.108-1.187-0.324-1.574c-0.213-0.383-0.498-0.687-0.86-0.898c-0.354-0.218-0.771-0.359-1.245-0.432
	c-0.472-0.071-0.98-0.106-1.524-0.106c-1.204,0-2.148,0.258-2.84,0.773c-0.686,0.515-1.087,1.375-1.202,2.576H194.002z
	 M208.101,77.197c-0.259,0.231-0.582,0.408-0.969,0.539c-0.385,0.124-0.802,0.235-1.241,0.317c-0.448,0.088-0.915,0.162-1.401,0.22
	c-0.485,0.057-0.976,0.128-1.461,0.212c-0.46,0.085-0.91,0.205-1.351,0.343c-0.448,0.151-0.833,0.344-1.161,0.583
	c-0.335,0.243-0.598,0.555-0.799,0.925c-0.199,0.371-0.301,0.843-0.301,1.42c0,0.54,0.102,0.999,0.301,1.374
	c0.201,0.374,0.475,0.663,0.818,0.879c0.343,0.216,0.748,0.37,1.204,0.455c0.458,0.082,0.93,0.123,1.418,0.123
	c1.2,0,2.134-0.196,2.794-0.601c0.659-0.401,1.141-0.881,1.458-1.442c0.315-0.552,0.513-1.119,0.582-1.69
	c0.073-0.574,0.108-1.034,0.108-1.378V77.197z"/>
<path fill="#3D3D3C" d="M234.7,85.235c-0.714,1.2-1.655,2.067-2.812,2.601c-1.162,0.524-2.474,0.794-3.935,0.794
	c-1.663,0-3.125-0.324-4.383-0.965c-1.261-0.647-2.299-1.523-3.116-2.623c-0.818-1.106-1.431-2.372-1.844-3.807
	c-0.42-1.431-0.625-2.92-0.625-4.466c0-1.493,0.205-2.928,0.625-4.321c0.413-1.389,1.025-2.613,1.844-3.674
	c0.817-1.059,1.84-1.909,3.069-2.557c1.235-0.644,2.67-0.969,4.298-0.969c1.319,0,2.573,0.284,3.762,0.839
	c1.191,0.56,2.128,1.383,2.819,2.472h0.084V57.384h6.104v30.684h-5.803v-2.832H234.7z M234.442,74.25
	c-0.171-0.846-0.464-1.589-0.881-2.229c-0.411-0.646-0.948-1.171-1.611-1.574c-0.655-0.397-1.489-0.598-2.492-0.598
	s-1.848,0.201-2.534,0.598c-0.688,0.403-1.238,0.937-1.655,1.595c-0.416,0.661-0.717,1.413-0.901,2.254
	c-0.189,0.846-0.279,1.729-0.279,2.639c0,0.864,0.102,1.721,0.302,2.584c0.201,0.86,0.517,1.624,0.964,2.299
	c0.443,0.672,1.003,1.219,1.675,1.636c0.671,0.413,1.489,0.617,2.43,0.617c1.003,0,1.845-0.196,2.515-0.597
	c0.671-0.406,1.212-0.938,1.613-1.613c0.4-0.672,0.686-1.438,0.856-2.295c0.169-0.864,0.258-1.752,0.258-2.67
	C234.7,75.979,234.611,75.099,234.442,74.25"/>
<path fill="#3D3D3C" d="M96.377,114.065c0.739-1.933,1.85-3.646,3.331-5.139c1.478-1.489,3.317-2.676,5.518-3.564
	c2.201-0.89,4.76-1.333,7.682-1.333c2.924,0,5.482,0.443,7.687,1.333c2.195,0.889,4.038,2.075,5.519,3.564
	c1.477,1.493,2.584,3.206,3.324,5.139c0.74,1.932,1.106,3.949,1.106,6.037c0,2.094-0.366,4.107-1.106,6.036
	c-0.74,1.936-1.848,3.648-3.324,5.138c-1.481,1.489-3.324,2.674-5.519,3.549c-2.205,0.871-4.763,1.304-7.687,1.304
	c-2.922,0-5.481-0.433-7.682-1.304c-2.201-0.875-4.04-2.06-5.518-3.549c-1.481-1.489-2.592-3.202-3.331-5.138
	c-0.739-1.929-1.105-3.942-1.105-6.036C95.272,118.015,95.639,115.997,96.377,114.065 M100.892,124.681
	c0.482,1.504,1.237,2.858,2.269,4.061c1.03,1.2,2.359,2.173,3.973,2.901c1.616,0.729,3.539,1.095,5.775,1.095
	c2.235,0,4.16-0.366,5.776-1.095c1.614-0.729,2.941-1.701,3.973-2.901c1.03-1.202,1.783-2.557,2.266-4.061s0.724-3.032,0.724-4.578
	c0-1.548-0.241-3.074-0.724-4.576c-0.482-1.504-1.236-2.858-2.266-4.061c-1.032-1.204-2.359-2.169-3.973-2.901
	c-1.616-0.732-3.541-1.095-5.776-1.095c-2.236,0-4.159,0.362-5.775,1.095c-1.614,0.732-2.943,1.697-3.973,2.901
	c-1.032,1.202-1.786,2.557-2.269,4.061c-0.482,1.502-0.723,3.028-0.723,4.576C100.169,121.648,100.41,123.177,100.892,124.681"/>
<path fill="#3D3D3C" d="M140.447,113.224v3.53h0.101c1.824-2.696,4.714-4.043,8.671-4.043c1.752,0,3.209,0.197,4.378,0.598
	c1.169,0.405,2.117,0.965,2.835,1.679c0.726,0.717,1.234,1.569,1.527,2.558c0.289,0.991,0.436,2.086,0.436,3.286v14.61h-4.386
	v-15.039c0-1.376-0.479-2.465-1.442-3.267c-0.965-0.799-2.287-1.204-3.973-1.204c-1.343,0-2.5,0.173-3.479,0.517
	c-0.98,0.344-1.799,0.834-2.446,1.459c-0.656,0.633-1.149,1.373-1.475,2.218c-0.331,0.84-0.492,1.771-0.492,2.773v12.543h-4.379
	v-22.218H140.447z"/>
<rect x="165.767" y="104.758" fill="#3D3D3C" width="4.386" height="30.684"/>
<path fill="#3D3D3C" d="M177.731,104.758h4.383v4.466h-4.383V104.758z M182.114,135.441h-4.383v-22.218h4.383V135.441z"/>
<path fill="#3D3D3C" d="M193.563,113.224v3.53h0.104c1.823-2.696,4.712-4.043,8.667-4.043c1.75,0,3.209,0.197,4.381,0.598
	c1.166,0.405,2.114,0.965,2.836,1.679c0.721,0.717,1.23,1.569,1.523,2.558c0.293,0.991,0.439,2.086,0.439,3.286v14.61h-4.386
	v-15.039c0-1.376-0.482-2.465-1.446-3.267c-0.965-0.799-2.283-1.204-3.97-1.204c-1.342,0-2.499,0.173-3.479,0.517
	c-0.979,0.344-1.797,0.834-2.448,1.459c-0.656,0.633-1.146,1.373-1.475,2.218c-0.327,0.84-0.488,1.771-0.488,2.773v12.543h-4.379
	v-22.218H193.563z"/>
<path fill="#3D3D3C" d="M237.504,134.029c-1.994,1.258-4.505,1.891-7.533,1.891c-2.125,0-3.977-0.289-5.543-0.863
	c-1.563-0.571-2.877-1.373-3.941-2.407c-1.069-1.029-1.867-2.26-2.4-3.694c-0.531-1.433-0.832-2.99-0.901-4.684
	c0-1.689,0.308-3.237,0.926-4.641c0.62-1.408,1.489-2.623,2.606-3.652c1.119-1.034,2.441-1.837,3.97-2.407
	c1.531-0.571,3.206-0.86,5.025-0.86c2.376,0,4.344,0.409,5.91,1.223c1.563,0.818,2.816,1.859,3.765,3.117
	c0.945,1.261,1.597,2.639,1.959,4.128c0.363,1.487,0.51,2.907,0.437,4.254h-19.954c-0.039,0.972,0.101,1.897,0.408,2.77
	c0.31,0.875,0.808,1.65,1.498,2.321c0.686,0.676,1.563,1.209,2.63,1.613c1.064,0.397,2.322,0.601,3.765,0.601
	c1.859,0,3.379-0.358,4.563-1.076c1.185-0.717,1.968-1.805,2.346-3.266h4.332C240.786,130.89,239.494,132.766,237.504,134.029
	 M236.448,119.759c-0.398-0.775-0.93-1.438-1.602-1.998c-0.667-0.56-1.462-1.003-2.372-1.335c-0.911-0.323-1.917-0.494-3.017-0.494
	c-1.134,0-2.155,0.171-3.07,0.494c-0.91,0.332-1.693,0.779-2.345,1.357c-0.652,0.571-1.17,1.234-1.548,1.998
	c-0.381,0.757-0.601,1.57-0.667,2.431h15.313C237.072,121.352,236.841,120.529,236.448,119.759"/>
<path fill="#3D3D3C" d="M82.945,6.325h-0.768c-0.374,0-0.679-0.302-0.679-0.679c0-0.376,0.305-0.677,0.679-0.677h4.662
	c0.376,0,0.679,0.301,0.679,0.677c0,0.376-0.303,0.679-0.679,0.679h-0.766c-0.419,0-0.758,0.335-0.758,0.754v4.48
	c0,0.414-0.337,0.754-0.756,0.754h-0.102c-0.418,0-0.758-0.34-0.758-0.754v-4.48C83.699,6.66,83.363,6.325,82.945,6.325"/>
<path fill="#3D3D3C" d="M89.118,4.969h0.976c0.324,0,0.611,0.205,0.713,0.509l1.545,4.542h0.02l1.458-4.527
	c0.102-0.314,0.392-0.525,0.723-0.525h0.964c0.418,0,0.758,0.335,0.758,0.754v5.836c0,0.418-0.339,0.756-0.758,0.756
	c-0.417,0-0.757-0.338-0.757-0.756V7.11h-0.019l-1.628,4.696c-0.102,0.303-0.39,0.509-0.713,0.509h-0.166
	c-0.324,0-0.609-0.207-0.715-0.509l-1.625-4.648h-0.022v4.402c0,0.418-0.336,0.756-0.754,0.756s-0.754-0.338-0.754-0.756V5.723
	C88.364,5.304,88.7,4.969,89.118,4.969"/>
<rect x="4.699" y="77.154" fill="#CE723D" width="14.745" height="58.975"/>
<rect x="34.19" y="91.901" fill="#CE723D" width="14.745" height="44.228"/>
<rect x="63.675" y="91.901" fill="#CE723D" width="14.745" height="44.228"/>
<path fill="#CE723D" d="M63.675,62.416H34.19V32.923h29.485V62.416z M78.42,18.182H19.444v58.976H78.42V18.182z"/>
</svg>
